<svg width="157" height="21" viewBox="0 0 157 21" fill="none" xmlns="http://www.w3.org/2000/svg">
<path d="M1.62005 4.73872C2.68067 3.098 4.18679 1.79341 5.96205 0.977718C6.17082 0.870277 6.3993 0.806537 6.63354 0.790389C6.86778 0.774242 7.10285 0.806027 7.32439 0.883804C7.54593 0.961581 7.74928 1.08372 7.92202 1.24274C8.09476 1.40177 8.23326 1.59435 8.32905 1.80872C8.42111 2.01041 8.47251 2.22827 8.48031 2.44984C8.48811 2.6714 8.45216 2.89234 8.37452 3.10001C8.29688 3.30767 8.17906 3.49799 8.02781 3.66009C7.87656 3.8222 7.69484 3.9529 7.49305 4.04472H7.47905C6.27915 4.5959 5.26098 5.4773 4.5436 6.58587C3.82622 7.69443 3.43929 8.98433 3.42805 10.3047C3.43075 11.627 3.81421 12.9206 4.5326 14.0307C5.251 15.1408 6.27391 16.0206 7.47905 16.5647C7.89769 16.7494 8.22581 17.0929 8.39121 17.5196C8.55662 17.9462 8.54577 18.4211 8.36105 18.8397C8.17632 19.2584 7.83286 19.5865 7.40622 19.7519C6.97957 19.9173 6.50469 19.9064 6.08605 19.7217C4.28465 18.9233 2.74974 17.6254 1.66305 15.9817C0.584528 14.3068 0.00751464 12.3584 7.29012e-05 10.3664C-0.00736883 8.37427 0.555072 6.42161 1.62105 4.73872H1.62005ZM13.046 16.5387C13.8076 16.1947 14.5043 15.7225 15.106 15.1427C15.4253 14.827 15.8554 14.6487 16.3044 14.6459C16.7534 14.6432 17.1856 14.8162 17.5087 15.128C17.8318 15.4399 18.02 15.8657 18.0331 16.3146C18.0463 16.7634 17.8833 17.1995 17.579 17.5297L17.536 17.5727C16.6448 18.4558 15.6036 19.1734 14.461 19.6917C14.0441 19.8778 13.5703 19.8907 13.1439 19.7275C12.7175 19.5644 12.3733 19.2386 12.187 18.8217L12.177 18.7997C12.0836 18.5977 12.0309 18.3793 12.022 18.1569C12.013 17.9345 12.0481 17.7125 12.1251 17.5037C12.2021 17.2949 12.3196 17.1033 12.4707 16.9399C12.6219 16.7766 12.8038 16.6447 13.006 16.5517L13.048 16.5327L13.046 16.5387ZM14.446 0.920718C15.4995 1.43548 16.4726 2.10041 17.335 2.89472C17.5446 3.05883 17.7162 3.26632 17.8381 3.50297C17.9599 3.73961 18.0292 3.99981 18.041 4.26572C18.0358 4.60335 17.9319 4.93208 17.7423 5.21151C17.5528 5.49094 17.2857 5.7089 16.9739 5.8386C16.6621 5.9683 16.3193 6.00409 15.9874 5.94158C15.6556 5.87907 15.3493 5.72097 15.106 5.48672C14.5163 4.88474 13.8189 4.39867 13.05 4.05372C12.6443 3.86524 12.3281 3.52584 12.1689 3.10776C12.0096 2.68968 12.0198 2.22594 12.1973 1.81528C12.3748 1.40461 12.7056 1.07944 13.1193 0.909004C13.5329 0.738563 13.9968 0.736309 14.412 0.902721L14.446 0.920718ZM24.822 1.73172C24.822 1.28006 25.0015 0.846889 25.3208 0.527515C25.6402 0.20814 26.0734 0.0287202 26.525 0.0287202C26.9767 0.0287202 27.4099 0.20814 27.7293 0.527515C28.0486 0.846889 28.228 1.28006 28.228 1.73172V18.8437C28.228 19.2954 28.0486 19.7285 27.7293 20.0479C27.4099 20.3673 26.9767 20.5467 26.525 20.5467C26.0734 20.5467 25.6402 20.3673 25.3208 20.0479C25.0015 19.7285 24.822 19.2954 24.822 18.8437V1.73172ZM40.566 10.6187C39.7651 11.7292 38.6508 12.5753 37.366 13.0487L41.966 17.6587C42.1287 17.8146 42.2584 18.0017 42.3473 18.2086C42.4363 18.4156 42.4828 18.6384 42.484 18.8637C42.4784 19.2005 42.3748 19.5283 42.1858 19.8071C41.9968 20.086 41.7307 20.3037 41.42 20.4336C41.1092 20.5636 40.7673 20.6002 40.4361 20.5389C40.1049 20.4777 39.7988 20.3212 39.555 20.0887L32.432 12.9657C32.1996 12.722 32.0431 12.4158 31.9819 12.0846C31.9206 11.7534 31.9572 11.4115 32.0872 11.1008C32.2171 10.7901 32.4348 10.5239 32.7136 10.335C32.9924 10.146 33.3203 10.0423 33.657 10.0367H35.195C35.6141 10.0297 36.0273 9.93743 36.4095 9.76551C36.7917 9.59358 37.1348 9.34561 37.418 9.03672C37.7184 8.73716 37.956 8.38067 38.1169 7.98814C38.2778 7.59561 38.3588 7.17493 38.355 6.75072C38.3599 6.33066 38.2794 5.91398 38.1183 5.52599C37.9573 5.13801 37.719 4.78681 37.418 4.49372C37.1434 4.17898 36.8056 3.92559 36.4265 3.75002C36.0475 3.57446 35.6357 3.48066 35.218 3.47472H33.64C33.1884 3.47472 32.7552 3.2953 32.4358 2.97592C32.1165 2.65655 31.937 2.22338 31.937 1.77172C31.937 1.32006 32.1165 0.88689 32.4358 0.567516C32.7552 0.248141 33.1884 0.0687211 33.64 0.0687211H35.073C36.8476 0.0763528 38.5474 0.784692 39.8022 2.03953C41.0571 3.29438 41.7654 4.99412 41.773 6.76872C41.7805 8.14581 41.3536 9.49021 40.553 10.6107L40.566 10.6187ZM49.755 4.73972C50.8135 3.10016 52.3167 1.79568 54.089 0.978721C54.298 0.871247 54.5266 0.807478 54.761 0.791309C54.9954 0.77514 55.2306 0.80691 55.4523 0.884677C55.674 0.962445 55.8775 1.08458 56.0504 1.24362C56.2234 1.40267 56.362 1.59528 56.458 1.80972C56.6437 2.21709 56.6599 2.68153 56.5031 3.10086C56.3464 3.52019 56.0294 3.86006 55.622 4.04572H55.606C54.4064 4.59719 53.3884 5.47867 52.6711 6.58717C51.9537 7.69567 51.5667 8.98541 51.555 10.3057C51.5577 11.628 51.9412 12.9216 52.6596 14.0317C53.378 15.1418 54.4009 16.0216 55.606 16.5657C55.8129 16.6572 55.9998 16.7885 56.1559 16.9522C56.3121 17.1159 56.4345 17.3087 56.5161 17.5197C56.5977 17.7306 56.637 17.9556 56.6317 18.1818C56.6263 18.4079 56.5765 18.6308 56.4851 18.8377C56.3936 19.0446 56.2623 19.2315 56.0986 19.3876C55.9349 19.5438 55.7421 19.6661 55.5311 19.7478C55.3201 19.8294 55.0951 19.8687 54.869 19.8633C54.6428 19.858 54.4199 19.8082 54.213 19.7167C52.411 18.9185 50.8754 17.6206 49.788 15.9767C48.677 14.3041 48.098 12.3345 48.127 10.3267C48.1086 8.34452 48.6749 6.40186 49.755 4.73972ZM61.176 16.5397C62.3873 16.0031 63.4167 15.1263 64.1393 14.0158C64.8618 12.9054 65.2465 11.609 65.2465 10.2842C65.2465 8.95939 64.8618 7.66305 64.1393 6.55261C63.4167 5.44217 62.3873 4.56539 61.176 4.02872C60.7652 3.84358 60.4447 3.5029 60.285 3.08157C60.1252 2.66023 60.1393 2.1927 60.324 1.78172C60.4205 1.57033 60.5584 1.38052 60.7297 1.22358C60.9011 1.06665 61.1022 0.945811 61.3212 0.868266C61.5402 0.790722 61.7726 0.758058 62.0045 0.772224C62.2364 0.78639 62.4631 0.847096 62.671 0.950721C64.0187 1.56453 65.2177 2.46232 66.1861 3.58261C67.1544 4.70291 67.8693 6.01924 68.2816 7.44148C68.694 8.86372 68.7941 10.3583 68.5752 11.8228C68.3562 13.2873 67.8233 14.6873 67.0131 15.9267C65.9301 17.5745 64.3971 18.877 62.596 19.6797C62.3897 19.7721 62.1673 19.8228 61.9413 19.8292C61.7154 19.8355 61.4904 19.7973 61.2793 19.7167C61.0681 19.6361 60.8749 19.5147 60.7106 19.3594C60.5464 19.2041 60.4144 19.018 60.322 18.8117L60.312 18.7877C60.2201 18.5877 60.1684 18.3716 60.16 18.1516C60.1516 17.9316 60.1867 17.7122 60.2631 17.5057C60.3395 17.2993 60.4559 17.11 60.6055 16.9485C60.7551 16.787 60.935 16.6566 61.135 16.5647L61.183 16.5437L61.176 16.5397ZM75.4351 0.0287202C75.7785 0.0214699 76.1159 0.118901 76.4026 0.308063C76.6893 0.497225 76.9116 0.769157 77.04 1.08772L80.1571 8.75372C80.2441 8.97207 80.2928 9.2038 80.301 9.43872C80.2987 9.88886 80.1188 10.3199 79.8005 10.6382C79.4822 10.9565 79.0512 11.1364 78.6011 11.1387C78.2544 11.1625 77.9096 11.0717 77.6196 10.8804C77.3296 10.6891 77.1105 10.4077 76.996 10.0797L73.8791 2.43472C73.7851 2.21107 73.7355 1.97129 73.733 1.72872C73.7351 1.27769 73.915 0.845687 74.2337 0.526477C74.5523 0.207267 74.984 0.0266105 75.4351 0.0237191V0.0287202ZM89.3061 6.29572L83.9681 19.5087C83.8465 19.832 83.6257 20.1085 83.3374 20.2987C83.0491 20.4889 82.7081 20.5831 82.363 20.5677C81.9131 20.5648 81.4824 20.3848 81.1642 20.0666C80.846 19.7484 80.6659 19.3177 80.663 18.8677C80.6712 18.6326 80.7206 18.4007 80.809 18.1827L87.7091 1.08272C87.8283 0.757846 88.0485 0.479717 88.3373 0.28913C88.6262 0.0985438 88.9685 0.00552677 89.314 0.0237191C89.6575 0.0163279 89.995 0.113703 90.2817 0.302882C90.5685 0.492062 90.7907 0.764077 90.919 1.08272L94.034 8.74872C94.1217 8.96697 94.1711 9.19869 94.18 9.43372C94.1772 9.8837 93.9971 10.3144 93.6789 10.6326C93.3608 10.9508 92.93 11.1308 92.48 11.1337C92.1334 11.1575 91.7886 11.0667 91.4986 10.8754C91.2086 10.6841 90.9895 10.4027 90.8751 10.0747L89.3061 6.29572ZM94.665 18.1567L101.565 1.05672C101.685 0.731582 101.907 0.453688 102.197 0.263946C102.487 0.0742036 102.831 -0.0173638 103.177 0.0027192C103.627 0.00508356 104.058 0.184949 104.377 0.503249C104.695 0.82155 104.875 1.25258 104.877 1.70272C104.867 1.94424 104.819 2.1826 104.733 2.40872L97.833 19.4637C97.7114 19.787 97.4907 20.0635 97.2024 20.2537C96.9141 20.4439 96.5731 20.5381 96.2281 20.5227C95.7779 20.5204 95.3469 20.3405 95.0286 20.0222C94.7103 19.7039 94.5304 19.2729 94.5281 18.8227C94.5381 18.5948 94.5868 18.3703 94.6721 18.1587L94.665 18.1567ZM111.383 1.72572C111.383 1.27392 111.563 0.840631 111.882 0.521163C112.201 0.201695 112.635 0.0222199 113.087 0.0222199C113.538 0.0222199 113.972 0.201695 114.291 0.521163C114.611 0.840631 114.79 1.27392 114.79 1.72572V18.8437C114.79 19.2956 114.611 19.7291 114.291 20.0486C113.971 20.3682 113.538 20.5477 113.086 20.5477C112.634 20.5477 112.201 20.3682 111.881 20.0486C111.562 19.7291 111.382 19.2956 111.382 18.8437L111.383 1.72572ZM120.357 17.1337C121.244 17.1354 122.121 16.9547 122.935 16.6029C123.748 16.2511 124.481 15.7357 125.087 15.0887C125.722 14.4624 126.224 13.7145 126.563 12.8898C126.902 12.065 127.072 11.1804 127.061 10.2887C127.039 8.47713 126.311 6.74566 125.032 5.46291C123.752 4.18015 122.023 3.44742 120.211 3.42072C119.759 3.42072 119.326 3.2413 119.007 2.92192C118.687 2.60255 118.508 2.16938 118.508 1.71772C118.508 1.26606 118.687 0.832889 119.007 0.513515C119.326 0.19414 119.759 0.0147202 120.211 0.0147202C122.934 0.0307537 125.54 1.12016 127.464 3.04638C129.388 4.9726 130.475 7.58012 130.488 10.3027C130.509 11.643 130.256 12.9735 129.745 14.2128C129.234 15.4522 128.476 16.5743 127.517 17.5107C126.601 18.4788 125.496 19.2488 124.27 19.7734C123.045 20.2979 121.725 20.5659 120.392 20.5607H120.231C119.779 20.5607 119.346 20.3812 119.026 20.0618C118.707 19.7423 118.528 19.309 118.528 18.8572C118.528 18.4054 118.707 17.9721 119.026 17.6527C119.346 17.3332 119.779 17.1537 120.231 17.1537H120.356L120.357 17.1337ZM143.819 20.5607C143.367 20.5607 142.934 20.3812 142.614 20.0618C142.295 19.7423 142.116 19.309 142.116 18.8572C142.116 18.4054 142.295 17.9721 142.614 17.6527C142.934 17.3332 143.367 17.1537 143.819 17.1537H155.224C155.676 17.1537 156.109 17.3332 156.429 17.6527C156.748 17.9721 156.928 18.4054 156.928 18.8572C156.928 19.309 156.748 19.7423 156.429 20.0618C156.109 20.3812 155.676 20.5607 155.224 20.5607H143.819ZM147.819 3.44972H145.251C144.801 3.44735 144.37 3.26749 144.052 2.94919C143.733 2.63089 143.553 2.19986 143.551 1.74972C143.553 1.29709 143.731 0.863065 144.049 0.540767C144.367 0.218469 144.798 0.0335647 145.251 0.025718H149.53C149.98 0.0280824 150.411 0.207948 150.73 0.526248C151.048 0.844549 151.228 1.27558 151.23 1.72572V11.7187C151.23 12.1714 151.05 12.6056 150.73 12.9257C150.41 13.2459 149.976 13.4257 149.523 13.4257C149.07 13.4257 148.636 13.2459 148.316 12.9257C147.996 12.6056 147.816 12.1714 147.816 11.7187L147.819 3.44972Z" fill="url(#paint0_linear)"/>
<defs>
<linearGradient id="paint0_linear" x1="98.5" y1="21" x2="100" y2="-4.08599e-07" gradientUnits="userSpaceOnUse">
<stop stop-color="#DEE0FF"/>
<stop offset="1" stop-color="#DCDEFF"/>
</linearGradient>
</defs>
</svg>
